<?xml version="1.0" standalone="no"?>
<!DOCTYPE svg PUBLIC "-//W3C//DTD SVG 20010904//EN"
 "http://www.w3.org/TR/2001/REC-SVG-20010904/DTD/svg10.dtd">
<svg version="1.0" xmlns="http://www.w3.org/2000/svg"
 width="832.000000pt" height="832.000000pt" viewBox="0 0 832.000000 832.000000"
 preserveAspectRatio="xMidYMid meet">
<metadata>
Created by potrace 1.14, written by Peter Selinger 2001-2017
</metadata>
<g transform="translate(0.000000,832.000000) scale(0.100000,-0.100000)"
fill="#000000" stroke="none">
<path d="M3989 7915 c-2 -2 -29 -6 -59 -9 -67 -7 -132 -17 -185 -30 -11 -2
-40 -9 -65 -15 -51 -11 -188 -56 -240 -78 -123 -52 -330 -168 -387 -218 -6 -5
-26 -21 -45 -34 -59 -44 -252 -245 -293 -306 -22 -33 -42 -62 -45 -65 -27 -26
-141 -246 -132 -255 9 -9 -62 0 -106 14 -100 31 -609 34 -744 5 -13 -3 -39 -7
-58 -10 -19 -3 -53 -10 -75 -16 -22 -5 -44 -11 -50 -12 -5 -1 -16 -5 -22 -9
-7 -5 -13 -6 -13 -3 0 9 -202 -63 -240 -85 -8 -5 -22 -12 -30 -15 -169 -68
-395 -228 -545 -386 -107 -113 -118 -126 -204 -253 -123 -182 -235 -445 -266
-625 -3 -19 -10 -54 -16 -78 -29 -133 -32 -484 -4 -612 3 -14 7 -38 9 -55 8
-64 80 -304 105 -353 5 -9 26 -53 46 -97 43 -91 96 -183 138 -237 16 -21 25
-38 20 -38 -4 0 -3 -4 4 -8 6 -4 32 -34 57 -66 91 -117 223 -244 357 -343 114
-84 324 -193 451 -233 l37 -11 0 -1407 c0 -774 0 -1419 1 -1433 l0 -26 2790 0
2790 0 1 51 c0 28 0 660 0 1405 1 1324 1 1353 20 1358 10 3 19 9 19 14 0 5 7
9 15 9 16 0 115 45 154 69 13 8 30 16 38 17 8 2 22 9 31 16 10 8 46 32 82 53
36 22 70 43 75 47 6 5 35 28 66 51 246 184 439 413 563 669 52 108 97 218 89
218 -3 0 -1 6 5 13 8 9 22 57 27 87 0 3 4 11 8 18 5 6 6 12 3 12 -2 0 0 15 5
33 5 17 12 46 14 62 3 17 7 41 10 55 13 60 19 155 19 290 0 127 -3 181 -18
290 -11 80 -72 299 -101 365 -7 17 -21 50 -31 75 -27 67 -87 180 -114 214 -8
10 -13 19 -10 20 6 1 -61 100 -72 104 -4 2 -8 8 -8 14 0 14 -106 142 -191 229
-129 132 -252 227 -422 327 -49 29 -90 52 -92 52 -2 0 -36 15 -77 33 -71 33
-207 84 -248 92 -45 11 -57 13 -95 23 -47 13 -85 20 -140 27 -22 3 -58 8 -80
11 -68 10 -248 12 -311 3 -32 -4 -81 -11 -109 -15 -27 -3 -52 -7 -55 -9 -8 -5
-165 -18 -218 -19 -38 -1 -45 3 -60 29 -9 17 -20 32 -24 33 -5 2 -8 8 -8 13 0
15 -95 154 -164 239 -81 102 -244 262 -343 338 -45 34 -86 62 -91 62 -5 0 -17
9 -27 20 -10 11 -24 20 -31 20 -7 0 -14 3 -16 8 -6 13 -233 132 -262 136 -6 1
-17 5 -23 9 -13 8 -110 40 -128 43 -5 0 -17 4 -25 7 -32 13 -122 34 -185 43
-22 3 -51 8 -65 11 -31 6 -376 14 -381 8z m371 -660 c30 -4 61 -8 68 -8 6 0
12 -5 12 -10 0 -6 3 -8 6 -5 3 4 20 2 37 -3 18 -6 42 -12 55 -15 42 -8 217
-87 273 -123 119 -76 143 -95 228 -179 134 -134 241 -310 305 -505 9 -27 18
-61 20 -75 2 -15 6 -34 10 -43 4 -9 6 -20 5 -25 -1 -5 0 -11 1 -14 7 -18 11
-73 14 -196 3 -127 0 -177 -18 -269 -3 -16 -9 -43 -12 -60 -8 -48 -70 -227
-98 -285 -14 -29 -23 -57 -20 -62 4 -7 122 -80 232 -143 88 -52 178 -106 233
-141 76 -48 62 -56 133 79 53 102 137 316 135 347 0 3 4 18 10 33 6 15 13 42
16 60 3 18 8 43 10 57 3 14 8 36 10 50 13 62 18 141 22 350 4 192 7 226 21
236 58 43 382 60 523 29 19 -5 44 -9 56 -11 11 -1 30 -5 41 -8 11 -4 29 -9 39
-11 34 -7 168 -58 188 -71 11 -8 27 -14 37 -14 10 0 18 -4 18 -10 0 -5 5 -10
12 -10 16 0 141 -84 207 -139 66 -55 134 -127 175 -184 17 -23 33 -44 37 -47
12 -10 89 -146 89 -158 0 -7 5 -12 10 -12 6 0 10 -7 10 -15 0 -9 9 -33 20 -55
11 -22 20 -48 20 -60 0 -11 5 -20 12 -20 6 0 9 -3 6 -6 -4 -3 -2 -20 4 -37 16
-51 29 -121 43 -222 7 -47 6 -213 -1 -270 -7 -64 -24 -145 -46 -220 -23 -80
-107 -265 -119 -265 -5 0 -9 -5 -9 -11 0 -6 -15 -32 -32 -57 -100 -141 -244
-275 -393 -364 -101 -61 -263 -131 -335 -144 -14 -3 -41 -9 -60 -14 -66 -17
-168 -31 -255 -34 l-40 -2 -2 -79 c-4 -109 -4 -96 -2 -230 1 -66 0 -124 -1
-130 -1 -5 -2 -12 0 -15 1 -4 1 -116 0 -200 -1 -8 0 -69 1 -135 1 -66 0 -124
-1 -130 -1 -5 -2 -12 0 -15 1 -4 1 -116 0 -200 -1 -8 0 -69 1 -135 1 -66 0
-124 -1 -130 -1 -5 -1 -14 0 -20 5 -24 2 -137 -4 -142 -6 -6 -4300 -12 -4321
-6 -7 2 -10 259 -10 779 0 427 -2 779 -5 783 -3 3 -21 7 -40 8 -92 4 -179 15
-275 37 -84 18 -285 100 -293 119 -2 4 -8 7 -14 7 -16 0 -118 69 -183 124
-316 266 -475 675 -429 1099 8 71 10 85 13 90 1 1 4 18 7 37 5 40 50 182 70
223 8 15 11 27 7 27 -5 0 -3 4 2 8 6 4 23 33 39 65 28 57 80 141 101 163 5 6
28 33 50 59 38 46 70 78 140 140 80 71 293 192 371 211 16 4 34 9 39 13 6 3
15 6 20 8 6 1 35 9 65 17 30 9 75 18 100 21 25 3 59 7 75 10 37 6 243 7 270 1
11 -2 42 -7 68 -10 27 -4 59 -10 70 -13 12 -2 33 -7 47 -10 14 -2 32 -7 40
-11 8 -3 20 -6 25 -7 16 -1 73 -24 153 -61 40 -19 77 -34 83 -34 5 0 9 -4 9
-10 0 -5 4 -10 10 -10 24 0 173 -113 250 -190 85 -84 140 -145 140 -155 0 -3
16 -27 35 -54 19 -26 35 -53 35 -60 0 -6 4 -11 8 -11 4 0 13 -14 19 -31 7 -17
16 -29 20 -27 4 3 125 62 268 133 143 70 261 129 263 130 3 3 -15 43 -31 70
-14 23 -34 54 -96 150 -118 183 -255 339 -374 426 -40 29 -75 55 -80 59 -8 7
61 119 115 185 51 63 190 197 239 230 24 17 50 36 57 43 7 6 19 12 27 12 7 0
15 4 17 9 4 10 107 63 178 91 66 26 192 59 255 66 28 4 52 8 54 10 6 6 282 -3
341 -11z m1961 -5622 c4 -56 3 -91 -3 -115 -3 -14 -4 -29 -1 -32 7 -7 8 -185
1 -192 -3 -3 -2 -21 2 -40 4 -18 4 -34 0 -34 -5 0 -5 -12 -2 -27 9 -34 7 -121
-3 -131 -3 -4 -979 -7 -2168 -7 l-2162 -1 1 286 c1 157 2 291 3 298 1 9 441
12 2166 12 2055 0 2165 -1 2166 -17z"/>
<path d="M2959 4119 c-4 -9 -6 -19 -3 -22 3 -2 5 -31 4 -63 0 -33 -1 -66 -1
-74 -1 -23 0 -242 0 -265 0 -11 0 -42 0 -70 0 -27 0 -93 1 -145 0 -52 1 -113
1 -135 0 -22 0 -87 0 -145 1 -119 1 -106 -1 -182 -1 -31 0 -60 3 -65 4 -6 523
-10 582 -4 8 1 11 187 10 594 l0 592 -293 0 c-262 0 -295 -2 -303 -16z"/>
<path d="M4806 4130 c-3 -5 0 -1171 3 -1180 0 -3 133 -5 293 -4 l293 0 3 45
c4 69 4 155 1 229 0 19 -1 41 0 48 2 24 2 38 2 92 0 30 0 62 0 70 0 8 0 33 0
55 -1 22 -1 47 -1 55 1 8 -1 30 -3 48 -2 18 0 35 4 38 4 2 3 19 -1 38 -4 19
-6 37 -3 40 3 2 4 29 4 58 -2 47 -1 135 0 171 1 17 0 126 -1 161 0 17 -3 32
-6 35 -7 8 -585 8 -588 1z"/>
</g>
</svg>
